<svg version="1.1" viewBox="0 0 1353 904" xmlns="http://www.w3.org/2000/svg">
    <g transform="translate(0,-108.604)">
        <path d="M 0,40.388 H 1014.755 V 718.547 H 0 Z" style="fill:#000000;fill-opacity:0;fill-rule:nonzero;stroke:none" transform="matrix(1.3333333,0,0,-1.3333333,0,1066.6667)"/>
        <path d="M 22.876447,-52.627953 H 5.6850406 V 9.53125e-4 H 22.876447 c 16.886719,0 27.9375,-9.925781225 27.9375,-26.121094125 0,-16.289062 -11.050781,-26.507812 -27.9375,-26.507812 z M 14.310041,-7.0420156 V -45.584984 h 8.566406 c 12.410156,0 19.078125,7.417968 19.078125,19.464843 0,11.964844 -6.667969,19.0781254 -19.078125,19.0781254 z M 75.807111,-9.9248281 64.064923,-41.729516 H 54.455548 L 70.885236,-0.67873437 62.400861,19.618141 h 8.941406 l 25.59375,-61.347657 H 87.994611 Z M 133.0532,9.53125e-4 h 8.56641 V -24.608422 c 0,-11.660156 -7.34766,-17.800781 -17.12109,-17.800781 -4.99219,0 -9.6211,2.050781 -12.42188,5.460937 v -4.78125 h -8.625 V 9.53125e-4 h 8.625 V -23.319359 c 0,-7.652344 4.17188,-11.589844 10.53516,-11.589844 6.28125,0 10.4414,3.9375 10.4414,11.589844 z M 149.7202,-21.045922 c 0,12.8671876 8.70703,21.72656263 19.53515,21.72656263 6.97266,0 11.96485,-3.32812503 14.61328,-6.89062503 V 9.53125e-4 h 8.71875 V -41.729516 h -8.71875 v 6.058594 c -2.5664,-3.398437 -7.41796,-6.738281 -14.46093,-6.738281 -10.98047,0 -19.6875,8.484375 -19.6875,21.363281 z m 34.14843,0.140625 c 0,9.011719 -6.1289,14.0859376 -12.64453,14.0859376 -6.43359,0 -12.64453,-5.2148436 -12.64453,-14.2265626 0,-9.011719 6.21094,-13.863281 12.64453,-13.863281 6.51563,0 12.64453,5.074219 12.64453,14.003906 z m 79.2129,20.906250125 h 8.5664 V -24.608422 c 0,-11.660156 -7.42969,-17.800781 -17.1914,-17.800781 -6.0586,0 -11.96485,3.1875 -14.54297,8.261719 -2.8711,-5.460938 -8.40235,-8.261719 -14.98828,-8.261719 -5.00391,0 -9.55079,2.050781 -12.35157,5.460937 v -4.78125 h -8.625 V 9.53125e-4 h 8.625 V -23.319359 c 0,-7.652344 4.17188,-11.589844 10.53516,-11.589844 6.28125,0 10.44141,3.9375 10.44141,11.589844 V 9.53125e-4 h 8.5664 V -23.319359 c 0,-7.652344 4.16016,-11.589844 10.52344,-11.589844 6.28125,0 10.44141,3.9375 10.44141,11.589844 z m 19.55273,0 h 8.625 V -41.729516 h -8.625 z M 287.01707,-47.249047 c 3.03516,0 5.46094,-2.425781 5.46094,-5.53125 0,-3.105469 -2.42578,-5.53125 -5.46094,-5.53125 -3.03515,0 -5.46093,2.425781 -5.46093,5.53125 0,3.105469 2.42578,5.53125 5.46093,5.53125 z m 45.83594,30.878906 c 1.44531,6.679688 6.43359,9.847656 14.08594,9.847656 8.69531,0 14.92968,-4.195312 14.92968,-11.207031 0,-6.363281 -4.16015,-9.25 -11.46093,-10.675781 l -6.51563,-1.28125 c -3.70312,-0.679687 -5.42578,-2.050781 -5.42578,-4.347656 0,-2.714844 2.57031,-4.589844 6.96094,-4.589844 4.64062,0 7.30469,1.875 8.11328,5.847656 l 7.875,-1.621094 c -1.44141,-6.511718 -6.32813,-9.847656 -15.55469,-9.847656 -8.56641,0 -15.23828,4.195313 -15.23828,11.464844 0,5.847656 3.77344,9.25 10.58203,10.675781 l 7.17188,1.445312 c 3.89843,0.789063 5.42578,2.296875 5.42578,4.347657 0,2.871093 -2.8711,4.746093 -7.51172,4.746093 -5.16797,0 -8.01172,-2.128906 -8.94141,-6.269531 z m 46.92578,0 c 1.44531,6.679688 6.43359,9.847656 14.08594,9.847656 8.69531,0 14.92968,-4.195312 14.92968,-11.207031 0,-6.363281 -4.16015,-9.25 -11.46093,-10.675781 l -6.51563,-1.28125 c -3.70312,-0.679687 -5.42578,-2.050781 -5.42578,-4.347656 0,-2.714844 2.57031,-4.589844 6.96094,-4.589844 4.64062,0 7.30469,1.875 8.11328,5.847656 l 7.875,-1.621094 c -1.44141,-6.511718 -6.32813,-9.847656 -15.55469,-9.847656 -8.56641,0 -15.23828,4.195313 -15.23828,11.464844 0,5.847656 3.77344,9.25 10.58203,10.675781 l 7.17188,1.445312 c 3.89843,0.789063 5.42578,2.296875 5.42578,4.347657 0,2.871093 -2.8711,4.746093 -7.51172,4.746093 -5.16797,0 -8.01172,-2.128906 -8.94141,-6.269531 z" style="fill:#ff0000;fill-opacity:1;fill-rule:nonzero;stroke:none" transform="matrix(1.3333333,0,0,-1.3333333,906.0396,681.9136)"/>
        <path d="m 0,0 h 31.702 v -75.899 c 0.546,0.436 0.858,0.659 1.14,0.914 23.079,20.887 46.154,41.779 69.233,62.667 6.335,5.733 12.671,11.466 19.032,17.169 0.684,0.613 0.76,1.087 0.337,1.895 -3.496,6.678 -6.304,13.62 -7.654,21.071 -1.664,9.183 -1.021,18.05 4.002,26.214 4.348,7.066 10.794,11.627 18.223,14.954 7.52,3.369 15.468,5.178 23.601,6.214 15.664,1.995 31.311,1.339 46.943,-0.467 26.163,-3.023 51.613,-9.251 76.685,-17.129 30.446,-9.567 59.894,-21.624 88.577,-35.58 19.128,-9.308 37.811,-19.429 55.991,-30.473 0.479,-0.291 0.951,-0.593 1.609,-1.004 -4.084,-5.609 -8.126,-11.161 -12.232,-16.799 -2.183,1.293 -4.309,2.563 -6.445,3.817 -37.525,22.032 -76.711,40.511 -117.796,54.918 -22.077,7.742 -44.533,14.124 -67.552,18.408 -13.957,2.598 -28.005,4.428 -42.232,4.674 -11.079,0.191 -22.093,-0.291 -32.772,-3.504 -3.468,-1.044 -6.847,-2.591 -10.022,-4.349 -5.027,-2.783 -7.019,-7.315 -6.523,-13.013 0.404,-4.639 1.807,-8.989 3.637,-13.225 3.18,-7.361 7.36,-14.15 12.188,-20.521 1.705,-2.249 3.21,-4.652 5.114,-6.762 2.011,-2.23 3.853,-4.612 5.836,-6.869 1.951,-2.221 3.956,-4.399 5.994,-6.541 2.07,-2.177 4.19,-4.306 6.323,-6.421 2.1,-2.083 4.221,-4.147 6.377,-6.174 2.188,-2.058 4.41,-4.082 6.653,-6.081 2.208,-1.968 4.441,-3.91 6.698,-5.822 22.487,-19.054 46.725,-35.625 72.045,-50.658 0.354,-0.21 0.727,-0.385 1.483,-0.783 -9.126,20.899 -18.096,41.441 -27.205,62.302 -3.736,-8.539 -7.361,-16.823 -11.131,-25.439 -7.335,5.586 -14.554,11.084 -21.82,16.618 1.846,4.11 3.61,8.034 5.373,11.96 3.975,8.851 7.966,17.694 11.897,26.565 0.41,0.926 0.891,1.206 1.873,1.202 9.212,-0.037 18.425,-0.041 27.637,0.006 1.023,0.005 1.462,-0.36 1.856,-1.24 20.31,-45.293 40.642,-90.576 60.972,-135.86 1.008,-2.245 2.018,-4.489 3.201,-7.12 -3.068,1.43 -5.775,2.668 -8.461,3.949 -29.608,14.133 -58.196,30.07 -85.451,48.35 -21.094,14.147 -41.255,29.492 -59.836,46.844 -10.414,9.726 -20.225,20.013 -28.99,31.267 -0.223,0.287 -0.468,0.556 -0.773,0.917 -18.5,-17.183 -36.925,-34.298 -55.461,-51.515..." style="fill:#ff0000;fill-opacity:1;fill-rule:nonzero;stroke:none" transform="matrix(1.3333333,0,0,-1.3333333,365.89493,669.8304)"/>
        <path d="m 0,0 c -0.493,-2.228 -0.836,-4.503 -1.506,-6.676 -2.893,-9.379 -9.271,-15.795 -17.711,-20.378 -7.474,-4.058 -15.561,-6.248 -23.899,-7.575 -13.722,-2.184 -27.505,-2.089 -41.309,-0.946 -28.355,2.346 -55.859,8.815 -82.974,17.137 -24.882,7.636 -49.08,17.075 -72.816,27.723 -0.995,0.447 -1.37,0.948 -1.369,2.077 0.033,47.565 0.028,95.129 0.028,142.693 0,0.508 0,1.016 0,1.696 h 1.789 c 9.494,0 18.989,-0.027 28.483,0.033 1.234,0.008 1.929,-0.399 2.633,-1.367 14.619,-20.135 29.272,-40.244 43.92,-60.357 0.273,-0.375 0.563,-0.737 0.931,-1.219 0.338,0.412 0.636,0.742 0.896,1.099 14.732,20.221 29.463,40.445 44.186,60.673 0.479,0.659 0.901,1.169 1.883,1.165 9.871,-0.044 19.741,-0.027 29.612,-0.03 0.279,0 0.559,-0.033 0.95,-0.058 V 9.16 h -27.58 v 106.099 c -0.538,-0.627 -0.839,-0.939 -1.097,-1.284 -15.255,-20.312 -30.515,-40.621 -45.735,-60.96 -0.706,-0.943 -1.461,-1.125 -2.555,-1.279 -2.92,-0.41 -4.581,0.815 -6.28,3.163 -14.254,19.699 -28.665,39.286 -43.03,58.906 -0.323,0.441 -0.667,0.867 -1.178,1.528 -0.043,-0.659 -0.092,-1.052 -0.092,-1.445 -0.003,-30.661 0.003,-61.322 -0.029,-91.983 -0.001,-1.074 0.357,-1.537 1.324,-1.934 28.508,-11.721 57.615,-21.586 87.749,-28.264 17.171,-3.806 34.496,-6.576 52.107,-7.164 11.106,-0.372 22.169,0.055 33.022,2.782 4.063,1.021 8.004,2.384 11.615,4.557 6.423,3.864 8.389,8.727 6.755,16.73 -1.63,7.983 -5.301,15.095 -9.549,21.935 -6.843,11.02 -15.059,20.979 -24.196,30.139 -7.058,7.076 -14.501,13.768 -21.748,20.656 -0.394,0.374 -0.796,0.985 -0.798,1.488 -0.047,8.452 -0.031,16.903 -0.026,25.355 10e-4,0.132 0.05,0.263 0.118,0.604 0.473,-0.359 0.866,-0.646 1.246,-0.949 10.918,-8.698 21.438,-17.85 31.33,-27.7 C -32.12,67.416 -20.295,53.906 -11.152,38.256 -6.323,29.992 -2.427,21.342 -0.718,11.838 -0.481,10.521 -0.239,9.205 0,7.888 0,5.259 0,2.629 0,0" style="fill:#ff0000;fill-opacity:1;fill-rule:nonzero;stroke:none" transform="matrix(1.3333333,0,0,-1.3333333,906.0396,681.9136)"/>
        <path d="M 0,0 C 10.123,22.747 20.153,45.284 30.26,67.996 49.25,53.332 69.052,40.125 89.46,27.61 H 87.994 C 73.282,27.61 58.571,27.596 43.86,27.637 42.707,27.641 42.135,27.293 41.663,26.24 37.92,17.902 34.098,9.599 30.353,1.261 29.924,0.307 29.43,-0.031 28.375,-0.026 19.445,0.019 10.515,0 1.584,0 Z" style="fill:#ff0000;fill-opacity:1;fill-rule:nonzero;stroke:none" transform="matrix(1.3333333,0,0,-1.3333333,365.89493,669.8304)"/>
    </g>
</svg>
